<?xml version="1.0" encoding="UTF-8"?>
<!DOCTYPE svg PUBLIC "-//W3C//DTD SVG 1.1//EN" "http://www.w3.org/Graphics/SVG/1.1/DTD/svg11.dtd">
<!-- Creator: CorelDRAW -->
<svg xmlns="http://www.w3.org/2000/svg" xml:space="preserve" width="50px" height="71px" version="1.1" style="shape-rendering:geometricPrecision; text-rendering:geometricPrecision; image-rendering:optimizeQuality; fill-rule:evenodd; clip-rule:evenodd"
viewBox="0 0 50 70.71"
 xmlns:xlink="http://www.w3.org/1999/xlink"
 xmlns:xodm="http://www.corel.com/coreldraw/odm/2003">
 <defs>
  <style type="text/css">
   <![CDATA[
    .fil0 {fill:#CCCCCC}
   ]]>
  </style>
 </defs>
 <g id="Camada_x0020_1">
  <metadata id="CorelCorpID_0Corel-Layer"/>
  <g id="_2378535027040">
   <path class="fil0" d="M23.98 26.43c-0.13,0.01 -0.32,0.04 -0.43,0.06 -1.64,0.28 -3.15,0.95 -4.41,2.01 -0.54,0.45 -1.04,0.96 -1.44,1.53 -0.9,1.28 -1.52,2.72 -1.65,4.32l-3.09 0 0 2.01 3.09 0c0.05,0.2 0.07,0.42 0.11,0.63 0.27,1.33 0.81,2.61 1.63,3.7 0.16,0.21 0.32,0.43 0.5,0.63 0.04,0.03 0.06,0.05 0.1,0.09 0.27,0.31 0.55,0.58 0.87,0.85 0.07,0.06 0.12,0.11 0.2,0.17l0.66 0.49c0.21,0.14 0.73,0.5 0.96,0.56 -0.05,-0.21 -0.62,-1.5 -0.73,-1.75 -0.08,-0.18 -0.3,-0.81 -0.43,-0.92 -0.3,-0.27 -0.7,-0.74 -0.92,-1.06 -0.12,-0.17 -0.22,-0.32 -0.34,-0.5 -1.54,-2.51 -1.42,-5.91 0.35,-8.27 0.13,-0.16 0.23,-0.31 0.37,-0.46l0.39 -0.44c0.09,-0.09 0.15,-0.12 0.23,-0.2 0.08,-0.08 0.12,-0.13 0.21,-0.2l0.45 -0.36c0.49,-0.36 1.02,-0.68 1.6,-0.91 1.55,-0.61 2.9,-0.7 4.53,-0.36 0.47,0.1 0.96,0.28 1.38,0.49 0.21,0.1 0.4,0.19 0.6,0.31 0.55,0.33 1.29,0.87 1.68,1.34 0.56,0.67 1.04,1.26 1.38,2.1 0.09,0.21 0.19,0.43 0.27,0.67 0.51,1.54 0.52,3.36 -0.03,4.87 -0.31,0.86 -0.84,1.87 -1.49,2.52l-0.52 0.55c-0.08,0.15 -0.15,0.37 -0.21,0.52l-0.76 1.8c-0.04,0.08 -0.09,0.17 -0.11,0.26 0.1,-0.02 0.37,-0.2 0.48,-0.26 0.17,-0.1 0.3,-0.19 0.46,-0.3 0.15,-0.1 0.28,-0.2 0.42,-0.31 0.28,-0.22 0.56,-0.44 0.81,-0.69 0.13,-0.14 0.25,-0.25 0.38,-0.38 0.08,-0.08 0.1,-0.13 0.17,-0.2 0.07,-0.07 0.12,-0.13 0.18,-0.21 1.1,-1.25 1.9,-3.11 2.04,-4.77l3.09 0 0 -2.01 -3.09 0c-0.07,-0.27 -0.09,-0.58 -0.15,-0.84 -0.18,-0.76 -0.42,-1.52 -0.76,-2.2 -0.17,-0.33 -0.33,-0.64 -0.53,-0.94 -0.55,-0.84 -0.95,-1.21 -1.63,-1.86 -0.28,-0.28 -0.8,-0.64 -1.13,-0.83 -0.65,-0.39 -1.31,-0.71 -2.07,-0.93 -0.5,-0.14 -1.08,-0.28 -1.66,-0.32l0 -3.1 -2.01 0 0 3.1z"/>
   <path class="fil0" d="M24.96 47.38l0.05 0c0.03,-0.14 0.42,-0.98 0.49,-1.13l0.74 -1.68c0.05,-0.1 0.08,-0.17 0.13,-0.27 0.04,-0.1 0.08,-0.19 0.12,-0.29 0.05,-0.11 0.08,-0.16 0.12,-0.27 0.04,-0.1 0.09,-0.2 0.13,-0.29l2.2 -4.94c0.03,-0.07 0.04,-0.1 0.07,-0.16 -0.12,0.03 -0.38,0.18 -0.5,0.24l-3.53 1.75 -3.51 -1.74c-0.11,-0.06 -0.4,-0.22 -0.51,-0.25 0.12,0.23 0.35,0.81 0.5,1.12l0.25 0.57c0.03,0.09 0.07,0.17 0.12,0.27l3.01 6.78c0.04,0.09 0.09,0.19 0.12,0.29z"/>
  </g>
 </g>
</svg>
