<?xml version="1.0" encoding="UTF-8"?>
<!DOCTYPE svg PUBLIC "-//W3C//DTD SVG 1.1//EN" "http://www.w3.org/Graphics/SVG/1.1/DTD/svg11.dtd">
<!-- Creator: CorelDRAW -->
<svg xmlns="http://www.w3.org/2000/svg" xml:space="preserve" width="50px" height="50px" version="1.1" style="shape-rendering:geometricPrecision; text-rendering:geometricPrecision; image-rendering:optimizeQuality; fill-rule:evenodd; clip-rule:evenodd"
viewBox="0 0 49.93 49.93"
 xmlns:xlink="http://www.w3.org/1999/xlink"
 xmlns:xodm="http://www.corel.com/coreldraw/odm/2003">
 <defs>
  <style type="text/css">
   <![CDATA[
    .fil0 {fill:#CCCCCC}
   ]]>
  </style>
 </defs>
 <g id="Camada_x0020_1">
  <metadata id="CorelCorpID_0Corel-Layer"/>
  <g id="_2378535035632">
   <path class="fil0" d="M22.88 6.42c-0.26,0.02 -0.65,0.1 -0.88,0.14 -3.41,0.57 -6.56,1.97 -9.18,4.17 -1.1,0.94 -2.15,1.99 -2.99,3.18 -1.86,2.65 -3.13,5.64 -3.41,8.97l-6.42 0 0 4.17 6.42 0c0.09,0.41 0.14,0.87 0.22,1.31 0.56,2.76 1.7,5.42 3.39,7.67 0.33,0.44 0.66,0.9 1.04,1.3 0.07,0.08 0.13,0.12 0.2,0.21 0.56,0.63 1.15,1.2 1.81,1.76 0.15,0.12 0.25,0.22 0.41,0.35l1.38 1.02c0.43,0.29 1.52,1.03 1.99,1.16 -0.1,-0.43 -1.29,-3.11 -1.51,-3.63 -0.16,-0.38 -0.63,-1.68 -0.89,-1.92 -0.63,-0.57 -1.47,-1.54 -1.93,-2.2 -0.24,-0.34 -0.45,-0.65 -0.69,-1.04 -3.2,-5.2 -2.95,-12.28 0.73,-17.16 0.26,-0.34 0.48,-0.65 0.77,-0.96l0.81 -0.92c0.17,-0.17 0.3,-0.25 0.46,-0.41 0.17,-0.17 0.25,-0.26 0.45,-0.42l0.93 -0.75c1.02,-0.74 2.11,-1.4 3.32,-1.87 3.22,-1.28 6.03,-1.46 9.41,-0.76 0.98,0.21 1.99,0.58 2.87,1.01 0.42,0.21 0.83,0.41 1.23,0.65 1.16,0.7 2.68,1.8 3.49,2.78 1.17,1.39 2.17,2.63 2.88,4.36 0.18,0.45 0.38,0.91 0.54,1.39 1.08,3.21 1.09,6.99 -0.05,10.12 -0.64,1.79 -1.74,3.87 -3.09,5.22l-1.08 1.16c-0.16,0.3 -0.32,0.76 -0.45,1.08l-1.57 3.72c-0.08,0.18 -0.18,0.37 -0.22,0.55 0.2,-0.05 0.77,-0.42 0.98,-0.55 0.36,-0.21 0.63,-0.39 0.97,-0.61 0.31,-0.21 0.57,-0.42 0.87,-0.65 0.59,-0.46 1.15,-0.91 1.68,-1.44 0.27,-0.27 0.51,-0.51 0.79,-0.79 0.15,-0.15 0.21,-0.26 0.35,-0.41 0.15,-0.15 0.24,-0.27 0.38,-0.43 2.28,-2.6 3.93,-6.45 4.22,-9.9l6.42 0 0 -4.17 -6.42 0c-0.13,-0.57 -0.17,-1.21 -0.3,-1.75 -0.37,-1.58 -0.88,-3.16 -1.59,-4.57 -0.34,-0.69 -0.68,-1.32 -1.09,-1.96 -1.14,-1.73 -1.97,-2.49 -3.38,-3.86 -0.58,-0.57 -1.67,-1.32 -2.35,-1.73 -1.36,-0.8 -2.71,-1.45 -4.3,-1.91 -1.04,-0.3 -2.25,-0.58 -3.45,-0.68l0 -6.42 -4.17 0 0 6.42z"/>
   <path class="fil0" d="M24.91 49.93l0.11 0c0.07,-0.3 0.87,-2.03 1.01,-2.35l1.55 -3.49c0.09,-0.2 0.16,-0.36 0.25,-0.56 0.1,-0.2 0.19,-0.4 0.27,-0.6 0.1,-0.23 0.15,-0.34 0.25,-0.57 0.08,-0.2 0.17,-0.4 0.27,-0.6l4.56 -10.26c0.06,-0.13 0.08,-0.2 0.14,-0.32 -0.24,0.06 -0.78,0.37 -1.04,0.49l-7.32 3.64 -7.28 -3.62c-0.25,-0.12 -0.83,-0.45 -1.07,-0.51 0.25,0.48 0.73,1.68 1.04,2.33l0.51 1.16c0.08,0.2 0.16,0.37 0.25,0.57l6.25 14.08c0.08,0.18 0.2,0.4 0.25,0.61z"/>
  </g>
 </g>
</svg>
