<?xml version="1.0" encoding="UTF-8"?>
<!DOCTYPE svg PUBLIC "-//W3C//DTD SVG 1.1//EN" "http://www.w3.org/Graphics/SVG/1.1/DTD/svg11.dtd">
<!-- Creator: CorelDRAW -->
<svg xmlns="http://www.w3.org/2000/svg" xml:space="preserve" width="24px" height="24px" version="1.1" style="shape-rendering:geometricPrecision; text-rendering:geometricPrecision; image-rendering:optimizeQuality; fill-rule:evenodd; clip-rule:evenodd"
viewBox="0 0 23.97 23.97"
 xmlns:xlink="http://www.w3.org/1999/xlink"
 xmlns:xodm="http://www.corel.com/coreldraw/odm/2003">
 <defs>
  <style type="text/css">
   <![CDATA[
    .fil0 {fill:#606062}
   ]]>
  </style>
 </defs>
 <g id="Camada_x0020_1">
  <metadata id="CorelCorpID_0Corel-Layer"/>
  <g id="_2378657014576">
   <path class="fil0" d="M10.98 3.08c-0.12,0.01 -0.31,0.05 -0.42,0.07 -1.64,0.27 -3.15,0.95 -4.4,2 -0.54,0.45 -1.04,0.96 -1.44,1.53 -0.89,1.27 -1.51,2.7 -1.64,4.3l-3.08 0 0 2.01 3.08 0c0.05,0.19 0.07,0.41 0.11,0.62 0.27,1.33 0.81,2.6 1.62,3.68 0.16,0.21 0.32,0.44 0.5,0.63 0.04,0.04 0.07,0.06 0.1,0.1 0.27,0.3 0.55,0.58 0.87,0.84 0.07,0.06 0.12,0.11 0.19,0.17l0.67 0.49c0.21,0.14 0.73,0.5 0.95,0.56 -0.04,-0.21 -0.62,-1.5 -0.72,-1.75 -0.08,-0.18 -0.3,-0.8 -0.43,-0.91 -0.3,-0.28 -0.7,-0.74 -0.92,-1.06 -0.12,-0.17 -0.22,-0.32 -0.34,-0.5 -1.53,-2.5 -1.41,-5.89 0.35,-8.24 0.13,-0.16 0.23,-0.31 0.37,-0.46l0.39 -0.44c0.08,-0.08 0.14,-0.12 0.22,-0.2 0.09,-0.08 0.12,-0.12 0.22,-0.2l0.45 -0.36c0.49,-0.36 1.01,-0.67 1.59,-0.9 1.54,-0.61 2.89,-0.7 4.52,-0.36 0.46,0.1 0.95,0.28 1.37,0.48 0.21,0.1 0.4,0.2 0.59,0.32 0.56,0.33 1.29,0.86 1.68,1.33 0.56,0.67 1.04,1.26 1.38,2.09 0.09,0.22 0.18,0.44 0.26,0.67 0.52,1.54 0.52,3.36 -0.02,4.86 -0.31,0.85 -0.84,1.86 -1.49,2.5l-0.51 0.56c-0.08,0.14 -0.16,0.37 -0.22,0.52l-0.76 1.79c-0.03,0.08 -0.08,0.17 -0.1,0.26 0.1,-0.03 0.37,-0.2 0.47,-0.26 0.17,-0.1 0.3,-0.19 0.46,-0.3 0.16,-0.1 0.28,-0.2 0.42,-0.31 0.28,-0.22 0.56,-0.44 0.81,-0.69 0.13,-0.13 0.24,-0.25 0.38,-0.38 0.07,-0.07 0.1,-0.12 0.17,-0.2 0.07,-0.07 0.11,-0.13 0.18,-0.2 1.09,-1.25 1.89,-3.1 2.02,-4.75l3.09 0 0 -2.01 -3.09 0c-0.06,-0.27 -0.08,-0.58 -0.14,-0.84 -0.18,-0.76 -0.42,-1.52 -0.76,-2.19 -0.17,-0.33 -0.33,-0.64 -0.53,-0.94 -0.54,-0.83 -0.94,-1.2 -1.62,-1.86 -0.28,-0.27 -0.8,-0.63 -1.13,-0.82 -0.65,-0.39 -1.3,-0.7 -2.06,-0.92 -0.5,-0.15 -1.08,-0.28 -1.65,-0.33l0 -3.08 -2.01 0 0 3.08z"/>
   <path class="fil0" d="M11.96 23.97l0.05 0c0.03,-0.15 0.42,-0.98 0.49,-1.13l0.74 -1.68c0.04,-0.09 0.07,-0.17 0.12,-0.27 0.05,-0.09 0.09,-0.19 0.13,-0.28 0.05,-0.12 0.07,-0.17 0.12,-0.28 0.04,-0.09 0.08,-0.19 0.13,-0.28l2.19 -4.93c0.03,-0.06 0.03,-0.1 0.06,-0.15 -0.11,0.02 -0.37,0.17 -0.49,0.23l-3.52 1.75 -3.49 -1.74c-0.12,-0.06 -0.4,-0.22 -0.52,-0.24 0.12,0.23 0.35,0.8 0.5,1.11l0.25 0.56c0.04,0.1 0.07,0.18 0.12,0.27l3 6.76c0.04,0.09 0.09,0.19 0.12,0.3z"/>
  </g>
 </g>
</svg>
